<svg xmlns="http://www.w3.org/2000/svg" width="266.893" height="266.895"><path fill="#fff" d="M764.164 0h-237.434c-8.137 0-14.73 6.594-14.73 14.731v237.434c0 8.135 6.594 14.73 14.73 14.73h127.826v-103.356h-34.781v-40.28h34.781v-29.705c0-34.473 21.055-53.244 51.807-53.244 14.73 0 27.391 1.097 31.08 1.587v36.026l-21.328.01c-16.725 0-19.963 7.947-19.963 19.609v25.717h39.887l-5.193 40.28h-34.693v103.355h68.012c8.135 0 14.731-6.596 14.731-14.73v-237.433c-.002-8.137-6.598-14.731-14.732-14.731z"/><g><path fill="#3B5998" d="M252.163 266.895c8.134 0 14.73-6.596 14.73-14.73v-237.434c0-8.137-6.596-14.731-14.73-14.731h-237.432c-8.138 0-14.731 6.594-14.731 14.731v237.434c0 8.135 6.593 14.73 14.731 14.73h237.432z"/><path fill="#fff" d="M184.151 266.895v-103.356h34.693l5.194-40.28h-39.887v-25.716c0-11.662 3.238-19.609 19.962-19.609l21.33-.01v-36.027c-3.69-.49-16.351-1.587-31.081-1.587-30.752 0-51.806 18.771-51.806 53.244v29.705h-34.781v40.28h34.781v103.355h41.595z"/></g></svg>