<svg xmlns="http://www.w3.org/2000/svg" width="211.239" height="195.633"><polygon fill="#F48018" points="96,15.633 96,175.572 96,195.633 128,180.572 128,0"/><polyline fill="#AEB0B3" points="206.822,68.433 211.239,114.297 149.356,100.833"/><path fill="#AEB0B3" d="M133.617 59.21v20.317c13.399 2.319 25.385 6.727 34.951 12.64l22.627-13.984c-15.42-9.531-35.322-16.283-57.578-18.973m-101.617 67.915c0-22.674 24.707-41.769 58.383-47.598v-20.325c-51.51 6.226-90.383 34.267-90.383 67.923 0 34.869 41.725 63.709 96 68.508v-20.061c-36.516-4.578-64-24.528-64-48.447"/><path fill="#1A1818" d="M247.216 100.333c1.775-5.574 4.438-10.508 7.99-14.803 3.55-4.293 7.969-7.721 13.255-10.282 5.284-2.558 11.437-3.84 18.457-3.84 7.019 0 13.172 1.282 18.457 3.84 5.285 2.561 9.704 5.989 13.256 10.282 3.55 4.295 6.213 9.229 7.99 14.803 1.775 5.575 2.663 11.378 2.663 17.405 0 6.029-.888 11.831-2.663 17.405-1.777 5.575-4.44 10.511-7.99 14.804-3.552 4.295-7.971 7.701-13.256 10.218-5.285 2.52-11.438 3.78-18.457 3.78-7.02 0-13.173-1.26-18.457-3.78-5.286-2.517-9.705-5.923-13.255-10.218-3.552-4.293-6.215-9.229-7.99-14.804-1.777-5.574-2.664-11.376-2.664-17.405 0-6.027.887-11.83 2.664-17.405m10.839 30.598c1.155 4.336 2.973 8.238 5.451 11.707 2.477 3.469 5.655 6.256 9.538 8.361 3.881 2.106 8.505 3.159 13.874 3.159 5.368 0 9.991-1.053 13.875-3.159 3.881-2.105 7.061-4.892 9.537-8.361 2.479-3.469 4.294-7.371 5.452-11.707 1.156-4.335 1.734-8.733 1.734-13.193 0-4.459-.578-8.857-1.734-13.193-1.158-4.336-2.973-8.238-5.452-11.706-2.476-3.469-5.656-6.256-9.537-8.362-3.884-2.106-8.507-3.159-13.875-3.159-5.369 0-9.993 1.053-13.874 3.159-3.883 2.106-7.061 4.893-9.538 8.362-2.478 3.468-4.296 7.37-5.451 11.706-1.158 4.336-1.734 8.734-1.734 13.193 0 4.46.576 8.858 1.734 13.193"/><path fill="#1A1818" d="M349.104 97.918v8.671h.248c1.735-3.549 4.459-6.132 8.176-7.743 3.717-1.61 7.805-2.415 12.264-2.415 4.955 0 9.269.91 12.945 2.725 3.674 1.818 6.731 4.274 9.167 7.371 2.435 3.097 4.274 6.67 5.513 10.715 1.238 4.048 1.858 8.343 1.858 12.884 0 4.543-.6 8.838-1.796 12.883-1.199 4.047-3.016 7.578-5.451 10.592-2.437 3.015-5.494 5.388-9.167 7.123-3.676 1.734-7.95 2.601-12.821 2.601-1.57 0-3.326-.166-5.265-.496-1.942-.332-3.862-.867-5.761-1.611-1.9-.742-3.696-1.752-5.388-3.033-1.694-1.282-3.117-2.869-4.274-4.77h-.248v32.951h-10.529v-88.448h10.529zm37.845 22.731c-.786-2.849-1.981-5.389-3.593-7.618-1.61-2.23-3.676-4.005-6.193-5.327-2.521-1.32-5.473-1.982-8.858-1.982-3.55 0-6.565.702-9.043 2.106-2.477 1.405-4.501 3.242-6.07 5.512-1.569 2.273-2.706 4.852-3.406 7.743-.703 2.892-1.053 5.822-1.053 8.795 0 3.139.371 6.174 1.114 9.105.744 2.932 1.921 5.512 3.531 7.743 1.611 2.228 3.695 4.025 6.256 5.388 2.558 1.362 5.656 2.043 9.291 2.043 3.632 0 6.668-.701 9.105-2.105 2.435-1.404 4.398-3.262 5.884-5.574 1.487-2.313 2.559-4.955 3.221-7.928.66-2.973.991-6.027.991-9.168 0-2.973-.393-5.883-1.177-8.733"/><path fill="#1A1818" d="M454.522 157.874c-4.791 3.635-10.82 5.451-18.086 5.451-5.121 0-9.558-.828-13.316-2.478-3.759-1.651-6.918-3.963-9.477-6.938-2.56-2.973-4.48-6.521-5.76-10.652-1.282-4.129-2.004-8.629-2.168-13.503 0-4.872.743-9.331 2.229-13.379 1.487-4.045 3.572-7.556 6.257-10.529 2.682-2.974 5.862-5.284 9.538-6.937 3.674-1.652 7.699-2.478 12.078-2.478 5.697 0 10.426 1.176 14.184 3.531 3.755 2.353 6.771 5.347 9.043 8.981 2.269 3.635 3.839 7.599 4.709 11.891.865 4.296 1.216 8.384 1.052 12.265h-47.941c-.084 2.808.248 5.472.99 7.99.744 2.519 1.941 4.75 3.594 6.689 1.65 1.942 3.758 3.49 6.316 4.645 2.561 1.158 5.576 1.734 9.045 1.734 4.459 0 8.111-1.031 10.963-3.096 2.848-2.064 4.725-5.203 5.635-9.416h10.406c-1.406 7.186-4.504 12.596-9.291 16.229m-2.539-41.127c-.949-2.23-2.23-4.15-3.842-5.76-1.609-1.611-3.51-2.89-5.697-3.841-2.19-.948-4.604-1.424-7.246-1.424-2.725 0-5.184.476-7.369 1.424-2.191.951-4.071 2.252-5.639 3.902-1.57 1.654-2.809 3.574-3.717 5.761-.908 2.189-1.445 4.521-1.609 6.999h36.791c-.166-2.478-.723-4.832-1.672-7.061"/><path fill="#1A1818" d="M481.899 97.918v10.158h.246c4.377-7.762 11.315-11.644 20.813-11.644 4.211 0 7.72.579 10.529 1.734 2.807 1.157 5.078 2.768 6.814 4.831 1.733 2.066 2.952 4.521 3.653 7.371.701 2.849 1.052 6.008 1.052 9.476v42.118h-10.529v-43.356c0-3.965-1.156-7.102-3.467-9.415-2.312-2.312-5.494-3.468-9.541-3.468-3.218 0-6.007.495-8.361 1.486s-4.316 2.396-5.883 4.212c-1.57 1.817-2.748 3.944-3.531 6.379-.785 2.437-1.176 5.101-1.176 7.99v36.172h-10.529v-64.044h9.91z"/><rect x="539.375" y="73.514" fill="#1A1818" width="13.008" height="88.448"/><path fill="#1A1818" d="M596.356 73.514c13.627 0 24.115 3.468 31.467 10.406 7.349 6.937 11.025 17.509 11.025 31.713 0 7.432-.828 14.019-2.479 19.757-1.652 5.742-4.21 10.572-7.679 14.494-3.469 3.924-7.887 6.918-13.256 8.981-5.369 2.066-11.727 3.097-19.078 3.097h-30.35v-88.448h30.35zm.992 78.538c1.322 0 2.975-.104 4.955-.311 1.983-.205 4.09-.699 6.318-1.486 2.231-.783 4.44-1.92 6.627-3.406 2.188-1.486 4.153-3.51 5.883-6.07 1.737-2.559 3.16-5.76 4.276-9.6 1.115-3.84 1.671-8.486 1.671-13.937 0-5.284-.517-10.012-1.546-14.183-1.034-4.17-2.725-7.721-5.08-10.653-2.354-2.931-5.387-5.161-9.104-6.69-3.717-1.527-8.301-2.292-13.752-2.292h-19.82v68.628h19.572z"/><polygon fill="#F48018" points="96,15.633 96,175.572 96,195.633 128,180.572 128,0"/><polyline fill="#AEB0B3" points="206.822,68.433 211.239,114.297 149.356,100.833"/><path fill="#AEB0B3" d="M133.617 59.21v20.317c13.399 2.319 25.385 6.727 34.951 12.64l22.627-13.984c-15.42-9.531-35.322-16.283-57.578-18.973m-101.617 67.915c0-22.674 24.707-41.769 58.383-47.598v-20.325c-51.51 6.226-90.383 34.267-90.383 67.923 0 34.869 41.725 63.709 96 68.508v-20.061c-36.516-4.578-64-24.528-64-48.447"/><path fill="#1A1818" d="M247.216 100.333c1.775-5.574 4.438-10.508 7.99-14.803 3.55-4.293 7.969-7.721 13.255-10.282 5.284-2.558 11.437-3.84 18.457-3.84 7.019 0 13.172 1.282 18.457 3.84 5.285 2.561 9.704 5.989 13.256 10.282 3.55 4.295 6.213 9.229 7.99 14.803 1.775 5.575 2.663 11.378 2.663 17.405 0 6.029-.888 11.831-2.663 17.405-1.777 5.575-4.44 10.511-7.99 14.804-3.552 4.295-7.971 7.701-13.256 10.218-5.285 2.52-11.438 3.78-18.457 3.78-7.02 0-13.173-1.26-18.457-3.78-5.286-2.517-9.705-5.923-13.255-10.218-3.552-4.293-6.215-9.229-7.99-14.804-1.777-5.574-2.664-11.376-2.664-17.405 0-6.027.887-11.83 2.664-17.405m10.839 30.598c1.155 4.336 2.973 8.238 5.451 11.707 2.477 3.469 5.655 6.256 9.538 8.361 3.881 2.106 8.505 3.159 13.874 3.159 5.368 0 9.991-1.053 13.875-3.159 3.881-2.105 7.061-4.892 9.537-8.361 2.479-3.469 4.294-7.371 5.452-11.707 1.156-4.335 1.734-8.733 1.734-13.193 0-4.459-.578-8.857-1.734-13.193-1.158-4.336-2.973-8.238-5.452-11.706-2.476-3.469-5.656-6.256-9.537-8.362-3.884-2.106-8.507-3.159-13.875-3.159-5.369 0-9.993 1.053-13.874 3.159-3.883 2.106-7.061 4.893-9.538 8.362-2.478 3.468-4.296 7.37-5.451 11.706-1.158 4.336-1.734 8.734-1.734 13.193 0 4.46.576 8.858 1.734 13.193"/><path fill="#1A1818" d="M349.104 97.918v8.671h.248c1.735-3.549 4.459-6.132 8.176-7.743 3.717-1.61 7.805-2.415 12.264-2.415 4.955 0 9.269.91 12.945 2.725 3.674 1.818 6.731 4.274 9.167 7.371 2.435 3.097 4.274 6.67 5.513 10.715 1.238 4.048 1.858 8.343 1.858 12.884 0 4.543-.6 8.838-1.796 12.883-1.199 4.047-3.016 7.578-5.451 10.592-2.437 3.015-5.494 5.388-9.167 7.123-3.676 1.734-7.95 2.601-12.821 2.601-1.57 0-3.326-.166-5.265-.496-1.942-.332-3.862-.867-5.761-1.611-1.9-.742-3.696-1.752-5.388-3.033-1.694-1.282-3.117-2.869-4.274-4.77h-.248v32.951h-10.529v-88.448h10.529zm37.845 22.731c-.786-2.849-1.981-5.389-3.593-7.618-1.61-2.23-3.676-4.005-6.193-5.327-2.521-1.32-5.473-1.982-8.858-1.982-3.55 0-6.565.702-9.043 2.106-2.477 1.405-4.501 3.242-6.07 5.512-1.569 2.273-2.706 4.852-3.406 7.743-.703 2.892-1.053 5.822-1.053 8.795 0 3.139.371 6.174 1.114 9.105.744 2.932 1.921 5.512 3.531 7.743 1.611 2.228 3.695 4.025 6.256 5.388 2.558 1.362 5.656 2.043 9.291 2.043 3.632 0 6.668-.701 9.105-2.105 2.435-1.404 4.398-3.262 5.884-5.574 1.487-2.313 2.559-4.955 3.221-7.928.66-2.973.991-6.027.991-9.168 0-2.973-.393-5.883-1.177-8.733"/><path fill="#1A1818" d="M454.522 157.874c-4.791 3.635-10.82 5.451-18.086 5.451-5.121 0-9.558-.828-13.316-2.478-3.759-1.651-6.918-3.963-9.477-6.938-2.56-2.973-4.48-6.521-5.76-10.652-1.282-4.129-2.004-8.629-2.168-13.503 0-4.872.743-9.331 2.229-13.379 1.487-4.045 3.572-7.556 6.257-10.529 2.682-2.974 5.862-5.284 9.538-6.937 3.674-1.652 7.699-2.478 12.078-2.478 5.697 0 10.426 1.176 14.184 3.531 3.755 2.353 6.771 5.347 9.043 8.981 2.269 3.635 3.839 7.599 4.709 11.891.865 4.296 1.216 8.384 1.052 12.265h-47.941c-.084 2.808.248 5.472.99 7.99.744 2.519 1.941 4.75 3.594 6.689 1.65 1.942 3.758 3.49 6.316 4.645 2.561 1.158 5.576 1.734 9.045 1.734 4.459 0 8.111-1.031 10.963-3.096 2.848-2.064 4.725-5.203 5.635-9.416h10.406c-1.406 7.186-4.504 12.596-9.291 16.229m-2.539-41.127c-.949-2.23-2.23-4.15-3.842-5.76-1.609-1.611-3.51-2.89-5.697-3.841-2.19-.948-4.604-1.424-7.246-1.424-2.725 0-5.184.476-7.369 1.424-2.191.951-4.071 2.252-5.639 3.902-1.57 1.654-2.809 3.574-3.717 5.761-.908 2.189-1.445 4.521-1.609 6.999h36.791c-.166-2.478-.723-4.832-1.672-7.061"/><path fill="#1A1818" d="M481.899 97.918v10.158h.246c4.377-7.762 11.315-11.644 20.813-11.644 4.211 0 7.72.579 10.529 1.734 2.807 1.157 5.078 2.768 6.814 4.831 1.733 2.066 2.952 4.521 3.653 7.371.701 2.849 1.052 6.008 1.052 9.476v42.118h-10.529v-43.356c0-3.965-1.156-7.102-3.467-9.415-2.312-2.312-5.494-3.468-9.541-3.468-3.218 0-6.007.495-8.361 1.486s-4.316 2.396-5.883 4.212c-1.57 1.817-2.748 3.944-3.531 6.379-.785 2.437-1.176 5.101-1.176 7.99v36.172h-10.529v-64.044h9.91z"/><rect x="539.375" y="73.514" fill="#1A1818" width="13.008" height="88.448"/><path fill="#1A1818" d="M596.356 73.514c13.627 0 24.115 3.468 31.467 10.406 7.349 6.937 11.025 17.509 11.025 31.713 0 7.432-.828 14.019-2.479 19.757-1.652 5.742-4.21 10.572-7.679 14.494-3.469 3.924-7.887 6.918-13.256 8.981-5.369 2.066-11.727 3.097-19.078 3.097h-30.35v-88.448h30.35zm.992 78.538c1.322 0 2.975-.104 4.955-.311 1.983-.205 4.09-.699 6.318-1.486 2.231-.783 4.44-1.92 6.627-3.406 2.188-1.486 4.153-3.51 5.883-6.07 1.737-2.559 3.16-5.76 4.276-9.6 1.115-3.84 1.671-8.486 1.671-13.937 0-5.284-.517-10.012-1.546-14.183-1.034-4.17-2.725-7.721-5.08-10.653-2.354-2.931-5.387-5.161-9.104-6.69-3.717-1.527-8.301-2.292-13.752-2.292h-19.82v68.628h19.572z"/></svg>